<?xml version="1.0" standalone="no"?>
<!DOCTYPE svg PUBLIC "-//W3C//DTD SVG 20010904//EN"
 "http://www.w3.org/TR/2001/REC-SVG-20010904/DTD/svg10.dtd">
<svg version="1.0" xmlns="http://www.w3.org/2000/svg"
 width="361.000000pt" height="361.000000pt" viewBox="0 0 361.000000 361.000000"
 preserveAspectRatio="xMidYMid meet">
<metadata>
Created by potrace 1.11, written by Peter Selinger 2001-2013
</metadata>
<g transform="translate(0.000000,361.000000) scale(0.100000,-0.100000)"
fill="#000000" stroke="none">
<path d="M1046 3075 c-120 -42 -233 -149 -275 -260 -11 -27 -57 -199 -102
-381 l-83 -332 -72 -4 c-130 -9 -233 -82 -293 -208 l-26 -55 -3 -350 c-2 -301
0 -353 13 -370 13 -16 28 -19 98 -20 l82 -1 6 -134 c6 -157 21 -201 90 -271
77 -78 163 -104 279 -87 73 11 170 91 211 174 20 43 24 67 27 184 l4 135 792
0 791 -1 6 -134 c6 -157 21 -201 90 -271 124 -125 304 -124 430 2 67 67 82
113 88 268 l6 135 82 1 c70 0 85 4 98 20 13 17 15 68 13 370 l-3 350 -27 57
c-15 32 -48 79 -75 106 -65 65 -128 94 -217 100 l-72 4 -86 345 c-50 201 -98
368 -114 401 -34 70 -132 170 -200 201 -108 52 -91 51 -813 51 l-676 0 -69
-25z m1383 -401 c12 -12 41 -112 85 -286 36 -147 66 -272 66 -278 0 -7 -261
-10 -785 -10 -524 0 -785 3 -785 10 0 6 30 131 66 278 42 166 74 275 85 287
17 20 30 20 634 19 597 0 616 -1 634 -20z m-1671 -838 c43 -9 62 -17 62 -27 0
-5 6 -9 13 -9 20 0 64 -50 86 -100 63 -138 -23 -308 -171 -340 -199 -42 -362
162 -274 345 35 71 91 119 156 130 19 3 36 8 39 10 4 4 45 0 89 -9z m2202 0
c145 -28 225 -208 152 -347 -93 -179 -341 -179 -434 0 -74 141 9 323 158 347
21 3 40 7 42 9 4 3 31 0 82 -9z"/>
</g>
</svg>
